<svg width="600" height="600" viewBox="0 0 600 600" fill="none" xmlns="http://www.w3.org/2000/svg">
<g clip-path="url(#clip0_2_191)">
<path opacity="0.64" d="M295.32 460.86C373.225 460.86 436.38 448.154 436.38 432.48C436.38 416.806 373.225 404.1 295.32 404.1C217.415 404.1 154.26 416.806 154.26 432.48C154.26 448.154 217.415 460.86 295.32 460.86Z" fill="#67F634"/>
<path d="M227.7 427.92C229.68 421.5 235.74 418.08 245.58 415.2C251.82 413.4 259.74 412.56 272.16 410.04C278.22 408.84 282.48 406.44 282.48 406.44V413.34C282.48 413.34 241.38 421.44 234.96 432.06C231.84 437.28 232.8 450.06 247.5 451.38C243 452.04 235.62 450.9 231.66 446.88C226.74 441.9 225.42 435.24 227.7 427.92Z" fill="#282323" stroke="black" stroke-width="4" stroke-miterlimit="10" stroke-linecap="round" stroke-linejoin="round"/>
<path d="M282.48 413.34C282.48 413.34 257.88 417.9 244.74 423.54C233.22 428.52 233.58 433.68 233.28 438.96C233.1 442.02 235.26 449.58 244.02 450.9C254.46 452.46 266.76 450.78 282.48 440.76C282.48 416.22 282.48 413.34 282.48 413.34Z" fill="#442C2A"/>
<path opacity="0.37" d="M233.28 438.96C233.52 434.7 233.34 430.5 239.34 426.42C239.1 427.92 239.04 429.36 238.98 430.86C238.8 433.92 246.18 429.96 254.94 431.22C264.06 432.6 269.46 443.04 282.48 436.02C282.48 437.52 282.48 439.08 282.48 440.7C266.76 450.72 254.46 452.34 244.02 450.84C235.26 449.58 233.1 441.96 233.28 438.96Z" fill="#442C2A"/>
<path d="M282.48 413.34C282.48 413.34 257.88 417.9 244.74 423.54C233.22 428.52 233.58 433.68 233.28 438.96C233.1 442.02 235.26 449.58 244.02 450.9C254.46 452.46 266.76 450.78 282.48 440.76C282.48 416.22 282.48 413.34 282.48 413.34Z" stroke="black" stroke-width="4" stroke-miterlimit="10" stroke-linecap="round" stroke-linejoin="round"/>
<path d="M259.68 427.44C257.7 428.52 258.18 439.02 262.98 440.46" stroke="black" stroke-width="4" stroke-miterlimit="10" stroke-linecap="round" stroke-linejoin="round"/>
<path d="M267.18 426.661C265.14 429.541 266.58 436.321 270.24 438.001" stroke="black" stroke-width="4" stroke-miterlimit="10" stroke-linecap="round" stroke-linejoin="round"/>
<path d="M274.08 424.261C272.04 427.141 273.48 433.921 277.14 435.601" stroke="black" stroke-width="4" stroke-miterlimit="10" stroke-linecap="round" stroke-linejoin="round"/>
<path d="M344.88 393.18C331.92 402.18 313.5 407.34 294.24 407.34C275.04 407.34 256.56 402.18 243.6 393.18C237.66 389.04 227.7 380.4 227.7 368.88C227.7 357.36 237.66 348.72 243.6 344.58C256.56 335.58 274.98 330.42 294.24 330.42C313.44 330.42 331.92 335.58 344.88 344.58C350.82 348.72 360.78 357.36 360.78 368.88C360.78 380.4 350.82 389.04 344.88 393.18Z" fill="#151E28"/>
<path d="M404.22 378.48C403.98 379.68 403.74 380.82 403.38 382.02C394.02 416.16 348.9 442.08 294.6 442.08C240.18 442.08 194.94 416.04 185.76 381.78C185.52 380.82 185.28 379.86 185.1 378.9C184.86 377.1 184.92 375.3 185.28 373.5C187.5 363.42 199.74 357.6 212.64 360.48C221.1 362.34 227.7 367.56 230.64 373.74C230.94 375.06 231.42 376.38 231.96 377.64C235.08 384.84 241.32 390.24 245.52 393.24C258.06 402.24 276 407.4 294.6 407.4C313.26 407.4 331.14 402.24 343.68 393.24C347.94 390.18 354.24 384.72 357.3 377.52C357.78 376.38 358.2 375.12 358.5 373.92C361.38 367.68 368.04 362.46 376.56 360.54C389.46 357.66 401.7 363.54 403.92 373.56C404.34 375.12 404.4 376.8 404.22 378.48Z" fill="#2A3749"/>
<path opacity="0.67" d="M403.92 373.44C403.86 373.14 403.8 372.9 403.68 372.6C403.5 373.56 403.26 374.58 402.96 375.54C393.72 409.68 348.54 435.6 294.3 435.6C239.88 435.6 194.64 409.56 185.46 375.3C185.34 374.94 185.28 374.58 185.16 374.16C184.92 375.72 184.86 377.28 185.1 378.78C185.28 379.74 185.52 380.7 185.76 381.66C194.94 415.92 240.18 441.96 294.6 441.96C348.9 441.96 394.02 416.04 403.38 381.9C403.68 380.76 403.98 379.56 404.22 378.36C404.4 376.8 404.34 375.12 403.92 373.44Z" fill="#151E28"/>
<path d="M404.22 378.48C403.98 379.68 403.74 380.82 403.38 382.02C394.02 416.16 348.9 442.08 294.6 442.08C240.18 442.08 194.94 416.04 185.76 381.78C185.52 380.82 185.28 379.86 185.1 378.9C184.86 377.1 184.92 375.3 185.28 373.5C187.5 363.42 199.74 357.6 212.64 360.48C221.1 362.34 227.7 367.56 230.64 373.74C230.94 375.06 231.42 376.38 231.96 377.64C235.08 384.84 241.32 390.24 245.52 393.24C258.06 402.24 276 407.4 294.6 407.4C313.26 407.4 331.14 402.24 343.68 393.24C347.94 390.18 354.24 384.72 357.3 377.52C357.78 376.38 358.2 375.12 358.5 373.92C361.38 367.68 368.04 362.46 376.56 360.54C389.46 357.66 401.7 363.54 403.92 373.56C404.34 375.12 404.4 376.8 404.22 378.48Z" stroke="black" stroke-width="4" stroke-miterlimit="10" stroke-linecap="round" stroke-linejoin="round"/>
<path d="M295.32 389.04C325.177 389.04 349.38 380.82 349.38 370.68C349.38 360.54 325.177 352.32 295.32 352.32C265.463 352.32 241.26 360.54 241.26 370.68C241.26 380.82 265.463 389.04 295.32 389.04Z" fill="#286F10"/>
<path d="M295.32 389.04C325.177 389.04 349.38 380.82 349.38 370.68C349.38 360.54 325.177 352.32 295.32 352.32C265.463 352.32 241.26 360.54 241.26 370.68C241.26 380.82 265.463 389.04 295.32 389.04Z" stroke="black" stroke-width="4" stroke-miterlimit="10" stroke-linecap="round" stroke-linejoin="round"/>
<path d="M356.88 330.6H232.32C222.78 330.6 215.4 322.26 216.6 312.78L222.12 268.68C223.68 256.08 234.36 246.66 247.08 246.66H342.24C354.9 246.66 365.58 256.08 367.2 268.68L372.72 312.78C373.8 322.26 366.42 330.6 356.88 330.6Z" fill="#67F634"/>
<path d="M356.88 330.6H232.32C222.78 330.6 215.4 322.26 216.6 312.78L222.12 268.68C223.68 256.08 234.36 246.66 247.08 246.66H342.24C354.9 246.66 365.58 256.08 367.2 268.68L372.72 312.78C373.8 322.26 366.42 330.6 356.88 330.6Z" stroke="black" stroke-width="4" stroke-miterlimit="10" stroke-linecap="round" stroke-linejoin="round"/>
<path d="M245.82 283.919L244.62 298.979" stroke="black" stroke-width="4" stroke-miterlimit="10" stroke-linecap="round" stroke-linejoin="round"/>
<path d="M344.28 283.919L345.48 298.979" stroke="black" stroke-width="4" stroke-miterlimit="10" stroke-linecap="round" stroke-linejoin="round"/>
<path d="M356.88 330.6H232.32C222.78 330.6 215.4 322.26 216.6 312.78L222.12 268.68C223.68 256.08 234.36 246.66 247.08 246.66H342.24C354.9 246.66 365.58 256.08 367.2 268.68L372.72 312.78C373.8 322.26 366.42 330.6 356.88 330.6Z" fill="#67F634"/>
<g opacity="0.24">
<path opacity="0.24" d="M222.06 273.36C223.62 260.76 234.3 251.34 247.02 251.34H342.18C354.84 251.34 365.52 260.76 367.14 273.36L372.6 317.1C372.78 315.72 372.84 314.28 372.66 312.78L367.14 268.68C365.58 256.08 354.9 246.66 342.18 246.66H247.02C234.36 246.66 223.68 256.08 222.06 268.68L216.54 312.78C216.36 314.22 216.36 315.66 216.6 317.1L222.06 273.36Z" fill="#286F10"/>
<path opacity="0.24" d="M252.54 251.34C252.54 251.34 259.92 252.66 260.52 256.74C261 260.04 260.94 262.2 262.2 263.52C263.46 264.84 266.4 267.54 272.34 267.54C269.04 264.24 268.98 252.66 268.08 252.66C267.24 252.66 265.08 246.9 265.08 246.9L262.2 245.58C262.26 245.58 251.64 246.9 252.54 251.34Z" fill="#286F10"/>
<path opacity="0.24" d="M331.38 251.34C331.38 251.34 324 252.66 323.4 256.74C322.92 260.04 322.98 262.2 321.72 263.52C320.46 264.78 317.52 267.54 311.58 267.54C314.88 264.24 314.94 252.66 315.84 252.66C316.68 252.66 318.84 246.9 318.84 246.9L321.72 245.58C321.66 245.58 332.28 246.9 331.38 251.34Z" fill="#286F10"/>
</g>
<path d="M356.88 330.6H232.32C222.78 330.6 215.4 322.26 216.6 312.78L222.12 268.68C223.68 256.08 234.36 246.66 247.08 246.66H342.24C354.9 246.66 365.58 256.08 367.2 268.68L372.72 312.78C373.8 322.26 366.42 330.6 356.88 330.6Z" stroke="black" stroke-width="4" stroke-miterlimit="10" stroke-linecap="round" stroke-linejoin="round"/>
<path d="M245.82 283.92L244.62 298.98" stroke="black" stroke-width="4" stroke-miterlimit="10" stroke-linecap="round" stroke-linejoin="round"/>
<path d="M344.28 283.92L345.48 298.98" stroke="black" stroke-width="4" stroke-miterlimit="10" stroke-linecap="round" stroke-linejoin="round"/>
<path d="M278.58 221.58L258.84 220.56L249.6 221.58C249.6 221.58 243.42 226.2 243.42 227.46C243.42 228.72 244.02 238.98 244.02 238.98C244.02 238.98 258.6 240.96 260.16 242.46C261.72 243.96 270.96 252.6 270.96 252.6L279.9 249.12L284.58 236.64L278.58 221.58Z" fill="#286F10"/>
<path d="M275.1 213.96H252.3C243.12 213.96 235.62 221.4 235.62 230.64C235.62 239.82 243.06 247.32 252.3 247.32H255.3C260.16 247.32 264.06 251.22 264.06 256.08V256.98C264.06 262.8 268.8 267.54 274.62 267.54V256.74C274.74 256.74 274.86 256.86 274.86 256.98V256.08C274.86 245.28 266.1 236.52 255.3 236.52H252.3C249.06 236.52 246.42 233.88 246.42 230.64C246.42 227.4 249.06 224.76 252.3 224.76H275.1V213.96Z" fill="#67F634"/>
<path d="M273.72 249.3C270.96 241.86 263.76 236.46 255.36 236.46H252.36C249.12 236.46 246.48 233.82 246.48 230.58C246.48 227.34 249.12 224.7 252.36 224.7H275.16V213.9H252.36C243.18 213.9 235.68 221.34 235.68 230.58C235.68 239.76 243.12 247.26 252.36 247.26H255.36C260.22 247.26 264.12 251.16 264.12 256.02V256.92C264.12 262.74 268.86 267.48 274.68 267.48" stroke="black" stroke-width="4" stroke-miterlimit="10" stroke-linecap="round" stroke-linejoin="round"/>
<path d="M304.68 221.58L324.42 220.56L333.66 221.58C333.66 221.58 339.84 226.2 339.84 227.46C339.84 228.72 339.24 238.98 339.24 238.98C339.24 238.98 324.66 240.96 323.1 242.46C321.54 244.02 312.3 252.6 312.3 252.6L303.36 249.12L298.68 236.64L304.68 221.58Z" fill="#286F10"/>
<path d="M308.16 213.96H330.96C340.14 213.96 347.64 221.4 347.64 230.64C347.64 239.82 340.2 247.32 330.96 247.32H327.96C323.1 247.32 319.2 251.22 319.2 256.08V256.98C319.2 262.8 314.46 267.54 308.64 267.54V256.74C308.52 256.74 308.4 256.86 308.4 256.98V256.08C308.4 245.28 317.16 236.52 327.96 236.52H330.96C334.2 236.52 336.84 233.88 336.84 230.64C336.84 227.4 334.2 224.76 330.96 224.76H308.16V213.96Z" fill="#67F634"/>
<path d="M309.6 249.3C312.36 241.86 319.56 236.46 327.96 236.46H330.96C334.2 236.46 336.84 233.82 336.84 230.58C336.84 227.34 334.2 224.7 330.96 224.7H308.16V213.9H330.96C340.14 213.9 347.64 221.34 347.64 230.58C347.64 239.76 340.2 247.26 330.96 247.26H327.96C323.1 247.26 319.2 251.16 319.2 256.02V256.92C319.2 262.74 314.46 267.48 308.64 267.48" stroke="black" stroke-width="4" stroke-miterlimit="10" stroke-linecap="round" stroke-linejoin="round"/>
<path d="M292.74 259.02C305.663 259.02 316.14 248.543 316.14 235.62C316.14 222.697 305.663 212.22 292.74 212.22C279.817 212.22 269.34 222.697 269.34 235.62C269.34 248.543 279.817 259.02 292.74 259.02Z" fill="#99EB7C"/>
<path d="M270.36 228.72C276.84 232.86 284.52 235.32 292.74 235.32C300.96 235.32 308.64 232.92 315.12 228.72C312.18 219.12 303.3 212.16 292.74 212.16C282.24 212.22 273.3 219.18 270.36 228.72Z" fill="#67F634"/>
<path d="M292.74 259.02C305.663 259.02 316.14 248.543 316.14 235.62C316.14 222.697 305.663 212.22 292.74 212.22C279.817 212.22 269.34 222.697 269.34 235.62C269.34 248.543 279.817 259.02 292.74 259.02Z" stroke="black" stroke-width="4" stroke-miterlimit="10" stroke-linecap="round" stroke-linejoin="round"/>
<path d="M292.74 249.18C285.12 249.18 278.94 243 278.94 235.38V225.06C278.94 223.14 280.5 221.58 282.42 221.58H303.12C305.04 221.58 306.6 223.14 306.6 225.06V235.38C306.54 243 300.36 249.18 292.74 249.18Z" fill="#FFC897"/>
<path d="M303.12 221.58H282.42C280.5 221.58 278.94 223.26 278.94 225.3V233.76C283.26 235.38 287.88 236.28 292.74 236.28C297.6 236.28 302.22 235.38 306.54 233.76V225.3C306.54 223.26 304.98 221.58 303.12 221.58Z" fill="#E5A973"/>
<path d="M292.74 249.18C285.12 249.18 278.94 243 278.94 235.38V225.06C278.94 223.14 280.5 221.58 282.42 221.58H303.12C305.04 221.58 306.6 223.14 306.6 225.06V235.38C306.54 243 300.36 249.18 292.74 249.18Z" stroke="black" stroke-width="4" stroke-miterlimit="10" stroke-linecap="round" stroke-linejoin="round"/>
<path d="M307.68 404.64H294.84V445.62H307.68V404.64Z" fill="#607691"/>
<path d="M307.68 404.64H294.84V445.62H307.68V404.64Z" stroke="black" stroke-width="4" stroke-miterlimit="10" stroke-linecap="round" stroke-linejoin="round"/>
<path d="M231.9 377.52C231.36 376.26 230.94 375 230.58 373.62C231.24 374.94 231.66 376.2 231.9 377.52Z" stroke="black" stroke-width="4" stroke-miterlimit="10" stroke-linecap="round" stroke-linejoin="round"/>
<path d="M357.36 377.4C357.6 376.14 358.02 374.94 358.56 373.8C358.26 375.06 357.84 376.26 357.36 377.4Z" stroke="black" stroke-width="4" stroke-miterlimit="10" stroke-linecap="round" stroke-linejoin="round"/>
<path d="M357.18 374.52H232.08C227.64 374.52 223.86 371.22 223.26 366.78L215.46 305.7C214.8 300.42 218.94 295.68 224.28 295.68H364.98C370.32 295.68 374.46 300.36 373.8 305.7L366 366.78C365.4 371.16 361.62 374.52 357.18 374.52Z" fill="#B5B5B5"/>
<path opacity="0.21" d="M365.94 362.941C365.4 367.381 361.62 370.681 357.12 370.681H232.08C227.64 370.681 223.86 367.381 223.26 362.941L215.58 302.761C215.4 303.721 215.34 304.681 215.46 305.701L223.26 366.781C223.8 371.221 227.58 374.521 232.08 374.521H357.18C361.62 374.521 365.4 371.221 366 366.781L373.8 305.701C373.92 304.681 373.86 303.721 373.68 302.761L365.94 362.941Z" fill="#7E7E7E"/>
<path opacity="0.21" d="M215.52 306.24C216.24 302.16 219.84 298.92 224.22 298.92H364.92C369.36 298.92 372.9 302.1 373.62 306.24L373.68 305.64C374.34 300.36 370.2 295.62 364.86 295.62H224.28C218.94 295.62 214.8 300.3 215.46 305.64L215.52 306.24Z" fill="#7E7E7E"/>
<path d="M357.18 374.52H232.08C227.64 374.52 223.86 371.22 223.26 366.78L215.46 305.7C214.8 300.42 218.94 295.68 224.28 295.68H364.98C370.32 295.68 374.46 300.36 373.8 305.7L366 366.78C365.4 371.16 361.62 374.52 357.18 374.52Z" stroke="black" stroke-width="4" stroke-miterlimit="10" stroke-linecap="round" stroke-linejoin="round"/>
<path opacity="0.66" d="M300.54 331.381C297.84 331.381 295.68 329.221 295.68 326.521C295.68 326.341 295.68 326.161 295.74 325.981C295.26 325.921 294.78 325.861 294.3 325.861C289.92 325.861 286.32 329.461 286.32 333.841C286.32 338.221 289.92 341.821 294.3 341.821C298.68 341.821 302.28 338.221 302.28 333.841C302.28 332.941 302.1 332.041 301.86 331.201C301.44 331.261 301.02 331.381 300.54 331.381Z" fill="#B5B5B5"/>
<path d="M362.46 427.92C360.48 421.5 354.42 418.08 344.58 415.2C338.34 413.4 330.42 412.56 318 410.04C311.94 408.84 307.68 406.44 307.68 406.44V413.34C307.68 413.34 348.78 421.44 355.2 432.06C358.32 437.28 357.36 450.06 342.66 451.38C347.16 452.04 354.54 450.9 358.5 446.88C363.42 441.9 364.74 435.24 362.46 427.92Z" fill="#282323" stroke="black" stroke-width="4" stroke-miterlimit="10" stroke-linecap="round" stroke-linejoin="round"/>
<path d="M307.68 413.34C307.68 413.34 332.28 417.9 345.42 423.54C356.94 428.52 356.58 433.68 356.88 438.96C357.06 442.02 354.9 449.58 346.14 450.9C335.7 452.46 323.4 450.78 307.68 440.76C307.68 416.22 307.68 413.34 307.68 413.34Z" fill="#442C2A"/>
<path opacity="0.37" d="M356.88 438.96C356.64 434.7 356.82 430.5 350.82 426.42C351.06 427.92 351.12 429.36 351.18 430.86C351.36 433.92 349.2 441.48 340.44 442.8C331.32 444.18 320.7 443.04 307.68 436.02C307.68 437.52 307.68 439.08 307.68 440.7C323.4 450.72 335.7 452.34 346.14 450.84C354.96 449.58 357.06 441.96 356.88 438.96Z" fill="#442C2A"/>
<path d="M307.68 413.34C307.68 413.34 332.28 417.9 345.42 423.54C356.94 428.52 356.58 433.68 356.88 438.96C357.06 442.02 354.9 449.58 346.14 450.9C335.7 452.46 323.4 450.78 307.68 440.76C307.68 416.22 307.68 413.34 307.68 413.34Z" stroke="black" stroke-width="4" stroke-miterlimit="10" stroke-linecap="round" stroke-linejoin="round"/>
<path d="M330.48 427.44C332.46 428.52 331.98 439.02 327.18 440.46" stroke="black" stroke-width="4" stroke-miterlimit="10" stroke-linecap="round" stroke-linejoin="round"/>
<path d="M322.98 426.661C325.02 429.541 323.58 436.321 319.92 438.001" stroke="black" stroke-width="4" stroke-miterlimit="10" stroke-linecap="round" stroke-linejoin="round"/>
<path d="M316.08 424.261C318.12 427.141 316.68 433.921 313.02 435.601" stroke="black" stroke-width="4" stroke-miterlimit="10" stroke-linecap="round" stroke-linejoin="round"/>
<path d="M271.68 261.42V293.34" stroke="black" stroke-width="6" stroke-miterlimit="10" stroke-linecap="round" stroke-linejoin="round"/>
<path d="M312.18 261.42V283.92" stroke="black" stroke-width="6" stroke-miterlimit="10" stroke-linecap="round" stroke-linejoin="round"/>
<path d="M312.18 290.7C314.93 290.7 317.16 288.47 317.16 285.72C317.16 282.97 314.93 280.74 312.18 280.74C309.43 280.74 307.2 282.97 307.2 285.72C307.2 288.47 309.43 290.7 312.18 290.7Z" fill="black"/>
<path d="M312.18 287.16C313.307 287.16 314.22 286.247 314.22 285.12C314.22 283.993 313.307 283.08 312.18 283.08C311.053 283.08 310.14 283.993 310.14 285.12C310.14 286.247 311.053 287.16 312.18 287.16Z" fill="#7E7E7E"/>
<path d="M292.74 231.72C271.86 231.72 254.88 214.8 254.88 193.86V149.94H330.6V193.86C330.6 214.74 313.68 231.72 292.74 231.72Z" fill="#FFC897"/>
<path d="M292.74 226.5C271.86 226.5 254.88 209.58 254.88 188.64V193.86C254.88 214.74 271.8 231.72 292.74 231.72C313.62 231.72 330.6 214.8 330.6 193.86V188.64C330.6 209.52 313.68 226.5 292.74 226.5Z" fill="#E5A973"/>
<path d="M292.74 231.72C271.86 231.72 254.88 214.8 254.88 193.86V149.94H330.6V193.86C330.6 214.74 313.68 231.72 292.74 231.72Z" stroke="black" stroke-width="4" stroke-miterlimit="10" stroke-linecap="round" stroke-linejoin="round"/>
<path d="M330.9 154.32C330.78 152.28 330.66 150.18 330.6 148.14C305.4 149.34 280.08 149.16 254.94 146.94C254.76 149.28 254.64 151.62 254.46 153.96C255.6 154.98 256.8 156.06 257.94 157.08C258.9 157.56 260.16 158.22 261.3 158.82C266.34 161.46 273.36 164.82 280.08 166.14C282.54 166.62 285.12 166.86 287.76 166.8C299.1 166.68 308.64 162.18 312.66 160.32C313.26 160.02 313.74 159.78 314.04 159.72C314.28 159.6 314.52 159.54 314.88 159.54C315.6 159.54 316.44 159.72 317.46 159.9C318.78 160.2 320.34 160.5 322.08 160.38C324.06 160.26 325.86 159.66 327.6 158.52C328.62 157.08 329.76 155.7 330.9 154.32Z" fill="#E5A973"/>
<path d="M312.66 131.52C312.66 131.52 282.36 111.54 257.28 133.86C252.6 138 250.74 143.94 250.74 149.4V178.32H254.94V157.32C254.94 155.76 256.02 154.56 257.34 154.56C259.5 154.56 271.2 160.8 281.1 162.54C296.04 165.12 309.66 158.22 312.6 157.2C317.64 155.4 321.72 161.64 328.08 154.62H328.32C329.64 154.62 330.72 155.88 330.72 157.38V178.38H334.92V149.58C334.8 142.5 326.64 124.74 312.66 131.52Z" fill="#231A17"/>
<g opacity="0.34">
<path opacity="0.34" d="M254.88 174.36H250.68V178.32H254.88V174.36Z" fill="#231A17"/>
<path opacity="0.34" d="M334.8 174.36H330.6V178.32H334.8V174.36Z" fill="#231A17"/>
</g>
<path d="M312.66 131.52C312.66 131.52 282.36 111.54 257.28 133.86C252.6 138 250.74 143.94 250.74 149.4V178.32H254.94V157.32C254.94 155.76 256.02 154.56 257.34 154.56C259.5 154.56 271.2 160.8 281.1 162.54C296.04 165.12 309.66 158.22 312.6 157.2C317.64 155.4 321.72 161.64 328.08 154.62H328.32C329.64 154.62 330.72 155.88 330.72 157.38V178.38H334.92V149.58C334.8 142.5 326.64 124.74 312.66 131.52Z" stroke="black" stroke-width="4" stroke-miterlimit="10" stroke-linecap="round" stroke-linejoin="round"/>
<path d="M287.04 151.02C287.04 151.02 254.52 153.12 247.62 135.84" stroke="black" stroke-width="4" stroke-miterlimit="10" stroke-linecap="round" stroke-linejoin="round"/>
<path d="M291.66 146.88C291.66 146.88 260.34 144.9 252.18 127.62" stroke="black" stroke-width="4" stroke-miterlimit="10" stroke-linecap="round" stroke-linejoin="round"/>
<path d="M330.6 173.64V193.32C334.8 193.32 338.16 188.94 338.16 183.48C338.16 178.02 334.8 173.64 330.6 173.64Z" fill="#FFC897"/>
<path d="M330.6 174.72V192.18C333.06 190.56 334.74 187.26 334.74 183.42C334.74 179.64 333.06 176.34 330.6 174.72Z" fill="#E5A973"/>
<path d="M330.6 173.64V193.32C334.8 193.32 338.16 188.94 338.16 183.48C338.16 178.02 334.8 173.64 330.6 173.64Z" stroke="black" stroke-width="4" stroke-miterlimit="10" stroke-linecap="round" stroke-linejoin="round"/>
<path d="M254.94 173.64V193.32C250.74 193.32 247.38 188.94 247.38 183.48C247.32 178.02 250.74 173.64 254.94 173.64Z" fill="#FFC897"/>
<path d="M254.94 175.08C252.78 176.82 251.28 179.94 251.28 183.48C251.28 187.02 252.72 190.14 254.94 191.88V175.08Z" fill="#E5A973"/>
<path d="M254.94 173.64V193.32C250.74 193.32 247.38 188.94 247.38 183.48C247.32 178.02 250.74 173.64 254.94 173.64Z" stroke="black" stroke-width="4" stroke-miterlimit="10" stroke-linecap="round" stroke-linejoin="round"/>
<path d="M291.18 189.66L288.66 197.88C288.66 198.78 291.6 198.06 294.6 198.78" stroke="black" stroke-width="4" stroke-miterlimit="10" stroke-linecap="round" stroke-linejoin="round"/>
<path d="M305.34 205.02C306.24 211.26 298.2 216.78 291.9 215.64" stroke="black" stroke-width="3" stroke-miterlimit="10" stroke-linecap="round" stroke-linejoin="round"/>
<path d="M279.12 182.7C280.512 182.7 281.64 181.491 281.64 180C281.64 178.509 280.512 177.3 279.12 177.3C277.728 177.3 276.6 178.509 276.6 180C276.6 181.491 277.728 182.7 279.12 182.7Z" stroke="black" stroke-width="2" stroke-miterlimit="10" stroke-linecap="round" stroke-linejoin="round"/>
<path d="M279.12 182.7C280.512 182.7 281.64 181.491 281.64 180C281.64 178.509 280.512 177.3 279.12 177.3C277.728 177.3 276.6 178.509 276.6 180C276.6 181.491 277.728 182.7 279.12 182.7Z" fill="black"/>
<path d="M270.42 174.3C271.68 172.8 274.62 171.78 278.1 171.78C280.86 171.78 283.26 172.44 284.76 173.46" stroke="black" stroke-width="3" stroke-miterlimit="10" stroke-linecap="round" stroke-linejoin="round"/>
<path d="M306.72 182.7C308.112 182.7 309.24 181.491 309.24 180C309.24 178.509 308.112 177.3 306.72 177.3C305.328 177.3 304.2 178.509 304.2 180C304.2 181.491 305.328 182.7 306.72 182.7Z" stroke="black" stroke-width="2" stroke-miterlimit="10" stroke-linecap="round" stroke-linejoin="round"/>
<path d="M306.72 182.7C308.112 182.7 309.24 181.491 309.24 180C309.24 178.509 308.112 177.3 306.72 177.3C305.328 177.3 304.2 178.509 304.2 180C304.2 181.491 305.328 182.7 306.72 182.7Z" fill="black"/>
<path d="M315.42 174.3C314.16 172.8 311.22 171.78 307.74 171.78C304.98 171.78 302.58 172.44 301.08 173.46" stroke="black" stroke-width="3" stroke-miterlimit="10" stroke-linecap="round" stroke-linejoin="round"/>
</g>
<defs>
<clipPath id="clip0_2_191">
<rect width="600" height="600" fill="white"/>
</clipPath>
</defs>
</svg>
